<svg width="100" height="100" viewBox="0 0 100 100" fill="none" xmlns="http://www.w3.org/2000/svg">
<circle cx="50" cy="50" r="49" stroke="#E25B30" stroke-width="2"/>
<g clip-path="url(#clip0)">
<path d="M74.6334 27.0792H25.3666C23.5103 27.0792 22 28.5894 22 30.4458V63.7009C22 65.5572 23.5103 67.0674 25.3666 67.0674H74.6335C76.4898 67.0674 78.0001 65.5572 78.0001 63.7009V30.4458C78 28.5894 76.4897 27.0792 74.6334 27.0792ZM76.1936 63.7009C76.1936 64.5612 75.4936 65.261 74.6334 65.261H25.3666C24.5064 65.261 23.8065 64.5612 23.8065 63.7009V30.4458C23.8065 29.5856 24.5064 28.8857 25.3666 28.8857H74.6335C75.4937 28.8857 76.1937 29.5855 76.1937 30.4458L76.1936 63.7009Z" fill="#E25B30"/>
<path d="M50 46.1291C53.8937 46.1291 57.0615 42.9613 57.0615 39.0675C57.0615 35.1738 53.8937 32.006 50 32.006C46.1063 32.006 42.9385 35.1738 42.9385 39.0675C42.9385 42.9613 46.1063 46.1291 50 46.1291ZM50 33.8123C52.8977 33.8123 55.2551 36.1697 55.2551 39.0674C55.2551 41.9651 52.8977 44.3225 50 44.3225C47.1023 44.3225 44.7449 41.9651 44.7449 39.0674C44.7449 36.1697 47.1023 33.8123 50 33.8123Z" fill="#E25B30"/>
<path d="M40.5266 55.9165C40.9889 56.1037 41.5156 55.8807 41.7028 55.4182C43.079 52.0199 46.3358 49.8241 50 49.8241C53.6642 49.8241 56.9211 52.0199 58.2972 55.4182C58.4394 55.7695 58.7776 55.9827 59.1346 55.9827C59.2476 55.9827 59.3624 55.9614 59.4734 55.9165C59.9357 55.7292 60.1588 55.2027 59.9716 54.7402C58.318 50.6564 54.4039 48.0177 50 48.0177C45.5961 48.0177 41.6821 50.6564 40.0284 54.7402C39.8412 55.2026 40.0643 55.7292 40.5266 55.9165Z" fill="#E25B30"/>
<path d="M73.4839 59.1026H26.5161C26.0173 59.1026 25.6129 59.507 25.6129 60.0059C25.6129 60.5047 26.0173 60.9091 26.5161 60.9091H73.4839C73.9827 60.9091 74.3871 60.5047 74.3871 60.0059C74.3871 59.507 73.9827 59.1026 73.4839 59.1026Z" fill="#E25B30"/>
<path d="M64.78 75.1145H57.0615V69.7772C57.0615 69.2784 56.6571 68.874 56.1583 68.874C55.6595 68.874 55.2551 69.2784 55.2551 69.7772V75.1145H44.7449V69.7772C44.7449 69.2784 44.3405 68.874 43.8417 68.874C43.3429 68.874 42.9385 69.2784 42.9385 69.7772V75.1145H35.22C34.7212 75.1145 34.3167 75.5189 34.3167 76.0177C34.3167 76.5165 34.7212 76.9209 35.22 76.9209H64.78C65.2788 76.9209 65.6832 76.5165 65.6832 76.0177C65.6832 75.5189 65.2788 75.1145 64.78 75.1145Z" fill="#E25B30"/>
<path d="M74.6334 27.0792H25.3666C23.5103 27.0792 22 28.5894 22 30.4458V63.7009C22 65.5572 23.5103 67.0674 25.3666 67.0674H74.6335C76.4898 67.0674 78.0001 65.5572 78.0001 63.7009V30.4458C78 28.5894 76.4897 27.0792 74.6334 27.0792ZM76.1936 63.7009C76.1936 64.5612 75.4936 65.261 74.6334 65.261H25.3666C24.5064 65.261 23.8065 64.5612 23.8065 63.7009V30.4458C23.8065 29.5856 24.5064 28.8857 25.3666 28.8857H74.6335C75.4937 28.8857 76.1937 29.5855 76.1937 30.4458L76.1936 63.7009Z" stroke="#E25B30" stroke-width="0.3"/>
<path d="M50 46.1291C53.8937 46.1291 57.0615 42.9613 57.0615 39.0675C57.0615 35.1738 53.8937 32.006 50 32.006C46.1063 32.006 42.9385 35.1738 42.9385 39.0675C42.9385 42.9613 46.1063 46.1291 50 46.1291ZM50 33.8123C52.8977 33.8123 55.2551 36.1697 55.2551 39.0674C55.2551 41.9651 52.8977 44.3225 50 44.3225C47.1023 44.3225 44.7449 41.9651 44.7449 39.0674C44.7449 36.1697 47.1023 33.8123 50 33.8123Z" stroke="#E25B30" stroke-width="0.3"/>
<path d="M40.5266 55.9165C40.9889 56.1037 41.5156 55.8807 41.7028 55.4182C43.079 52.0199 46.3358 49.8241 50 49.8241C53.6642 49.8241 56.9211 52.0199 58.2972 55.4182C58.4394 55.7695 58.7776 55.9827 59.1346 55.9827C59.2476 55.9827 59.3624 55.9614 59.4734 55.9165C59.9357 55.7292 60.1588 55.2027 59.9716 54.7402C58.318 50.6564 54.4039 48.0177 50 48.0177C45.5961 48.0177 41.6821 50.6564 40.0284 54.7402C39.8412 55.2026 40.0643 55.7292 40.5266 55.9165Z" stroke="#E25B30" stroke-width="0.3"/>
<path d="M73.4839 59.1026H26.5161C26.0173 59.1026 25.6129 59.507 25.6129 60.0059C25.6129 60.5047 26.0173 60.9091 26.5161 60.9091H73.4839C73.9827 60.9091 74.3871 60.5047 74.3871 60.0059C74.3871 59.507 73.9827 59.1026 73.4839 59.1026Z" stroke="#E25B30" stroke-width="0.3"/>
<path d="M64.78 75.1145H57.0615V69.7772C57.0615 69.2784 56.6571 68.874 56.1583 68.874C55.6595 68.874 55.2551 69.2784 55.2551 69.7772V75.1145H44.7449V69.7772C44.7449 69.2784 44.3405 68.874 43.8417 68.874C43.3429 68.874 42.9385 69.2784 42.9385 69.7772V75.1145H35.22C34.7212 75.1145 34.3167 75.5189 34.3167 76.0177C34.3167 76.5165 34.7212 76.9209 35.22 76.9209H64.78C65.2788 76.9209 65.6832 76.5165 65.6832 76.0177C65.6832 75.5189 65.2788 75.1145 64.78 75.1145Z" stroke="#E25B30" stroke-width="0.3"/>
</g>
<defs>
<clipPath id="clip0">
<rect width="56" height="56" fill="white" transform="translate(22 24)"/>
</clipPath>
</defs>
</svg>
