<svg width="72" height="72" viewBox="0 0 72 72" fill="none" xmlns="http://www.w3.org/2000/svg">
<circle cx="36" cy="36" r="36" fill="#E25B30"/>
<g clip-path="url(#clip0)">
<path d="M39.107 30.2256L40.4166 28.9159L43.1217 31.621L41.812 32.9307L39.107 30.2256Z" fill="white"/>
<path d="M36.4873 32.8447L37.797 31.5351L40.502 34.2401L39.1923 35.5498L36.4873 32.8447Z" fill="white"/>
<path d="M43.5699 24.1517C43.4203 24.223 43.3536 24.3981 43.4182 24.5503L43.4304 24.579L43.7446 25.5934C43.7278 25.6085 43.7109 25.6236 43.6946 25.6398L41.7298 27.6046L44.4353 30.31L46.4001 28.3453C46.4221 28.3233 46.443 28.3007 46.4629 28.2778L47.4784 28.5923C47.6239 28.6374 47.783 28.5676 47.8485 28.4301C49.1234 25.7515 51.7082 24.5091 51.8212 24.4559C51.8969 24.4208 51.9559 24.3555 51.9832 24.2766C52.0104 24.1979 52.0044 24.1101 51.9666 24.0358L50.6652 21.4773C50.6504 21.4483 50.6312 21.4219 50.6082 21.3989C50.5852 21.3759 50.5588 21.3567 50.5299 21.342L48.0078 20.0591L47.9863 20.0458C47.9218 20.0061 47.8451 19.9915 47.7704 20.0048C47.6711 20.0224 47.5866 20.0875 47.5442 20.179C47.5318 20.2058 46.2746 22.8645 43.5699 24.1517Z" fill="white"/>
<path d="M36.7044 44.19C36.6696 43.6283 37.0311 43.1265 37.5641 42.9969C38.5035 42.7684 39.3613 42.283 40.0447 41.5931C40.5306 41.1025 40.9086 40.5299 41.1684 39.8913C41.3089 39.5459 41.2284 39.1504 40.9654 38.8876C40.9614 38.8836 40.9574 38.8796 40.9533 38.8756C40.6807 38.6128 40.2757 38.5424 39.9304 38.6978C38.9889 39.1213 37.7178 38.8896 36.5981 38.1472L37.8859 36.8594L35.1804 34.154L34.3648 34.9696C34.1853 34.0731 34.3454 33.2308 34.8906 32.6857C35.0473 32.529 35.2316 32.4004 35.4384 32.3035C35.7966 32.1356 36.0086 31.7588 35.9661 31.3655C35.9238 30.9722 35.6362 30.6492 35.2504 30.5616C33.4834 30.1602 31.6661 30.6771 30.3891 31.9442C29.6977 32.6302 29.2123 33.4912 28.9856 34.4341C28.8575 34.9664 28.3559 35.3284 27.7929 35.2947C25.6523 35.1667 23.561 35.9569 22.0551 37.4628C19.3148 40.2032 19.3148 44.6621 22.0551 47.4024L24.5977 49.9449C27.3381 52.6853 31.7969 52.6853 34.5373 49.9449C36.0479 48.4343 36.8378 46.3368 36.7044 44.19ZM29.4701 44.4822L27.5179 42.5301C27.1563 42.1684 27.1563 41.5819 27.5179 41.2202C27.8796 40.8585 28.4661 40.8585 28.8278 41.2202L30.7799 43.1723C31.1416 43.534 31.1416 44.1205 30.7799 44.4822C30.4182 44.8439 29.8318 44.8439 29.4701 44.4822ZM32.3983 41.554L30.4461 39.6019C30.0844 39.2402 30.0844 38.6538 30.4461 38.292C30.8078 37.9303 31.3943 37.9303 31.756 38.292L33.7081 40.2441C34.0698 40.6058 34.0698 41.1923 33.7081 41.554C33.3464 41.9157 32.7599 41.9157 32.3983 41.554Z" fill="white"/>
</g>
<defs>
<clipPath id="clip0">
<rect width="32" height="32" fill="white" transform="translate(20 20)"/>
</clipPath>
</defs>
</svg>
