<svg width="100" height="100" viewBox="0 0 100 100" fill="none" xmlns="http://www.w3.org/2000/svg">
<circle cx="50" cy="50" r="49" stroke="#E25B30" stroke-width="2"/>
<path d="M72.0249 32.7118H73.7552C74.3588 32.7118 74.8482 32.2224 74.8482 31.6188C74.8482 31.0152 74.3588 30.5258 73.7552 30.5258H69.6017C68.9981 30.5258 68.5087 31.0152 68.5087 31.6188V35.7723C68.5087 36.3759 68.9981 36.8654 69.6017 36.8654C70.2053 36.8654 70.6947 36.3759 70.6947 35.7723V34.5697C74.0112 39.0097 75.8139 44.3969 75.8139 50C75.8139 64.2339 64.2339 75.8139 50 75.8139C35.7661 75.8139 24.1861 64.2339 24.1861 50C24.1861 35.7661 35.7661 24.1861 50 24.1861C51.0527 24.1861 52.1122 24.25 53.1492 24.376C53.7477 24.4484 54.2934 24.0222 54.3662 23.4229C54.4391 22.8237 54.0124 22.2787 53.4131 22.2059C52.2888 22.0693 51.1406 22 50 22C42.5209 22 35.4894 24.9125 30.201 30.201C24.9125 35.4894 22 42.5209 22 50C22 57.4791 24.9125 64.5106 30.201 69.799C35.4894 75.0875 42.5209 78 50 78C57.4791 78 64.5106 75.0875 69.799 69.799C75.0875 64.5106 78 57.4791 78 50C78 43.6887 75.8915 37.6298 72.0249 32.7118Z" fill="#E25B30"/>
<path d="M33.8563 38.5063C33.3462 38.1834 32.6711 38.3353 32.3481 38.8451C29.8528 42.7861 28.7482 47.5257 29.2377 52.1909C29.7345 56.9253 31.8654 61.3899 35.2378 64.7624C39.3077 68.8323 44.6539 70.8673 50.0001 70.8673C55.3464 70.8673 60.6924 68.8324 64.7624 64.7624C72.9023 56.6225 72.9023 43.3778 64.7624 35.238C61.3951 31.8708 56.9378 29.7407 52.2113 29.2401C47.5548 28.7466 42.8203 29.8426 38.8809 32.3256C38.3701 32.6475 38.2172 33.3224 38.539 33.8331C38.8609 34.3439 39.5359 34.4968 40.0465 34.175C47.4724 29.4946 57 30.5672 63.2165 36.7837C70.5041 44.0713 70.5041 55.929 63.2165 63.2166C55.9291 70.5042 44.0712 70.5042 36.7837 63.2166C30.6531 57.086 29.5644 47.3281 34.1952 40.0146C34.518 39.5045 34.3664 38.8293 33.8563 38.5063Z" fill="#E25B30"/>
<path d="M64.2095 51.1107H65.5575C66.161 51.1107 66.6505 50.6213 66.6505 50.0177C66.6505 49.4141 66.161 48.9247 65.5575 48.9247H64.2095C63.606 48.9247 63.1165 49.4141 63.1165 50.0177C63.1165 50.6213 63.6059 51.1107 64.2095 51.1107Z" fill="#E25B30"/>
<path d="M33.3495 49.9822C33.3495 50.5858 33.839 51.0752 34.4425 51.0752H35.7905C36.394 51.0752 36.8835 50.5858 36.8835 49.9822C36.8835 49.3786 36.394 48.8892 35.7905 48.8892H34.4425C33.839 48.8892 33.3495 49.3785 33.3495 49.9822Z" fill="#E25B30"/>
<path d="M51.1107 35.7906V34.4426C51.1107 33.8391 50.6213 33.3496 50.0177 33.3496C49.4141 33.3496 48.9247 33.8391 48.9247 34.4426V35.7906C48.9247 36.3941 49.4141 36.8836 50.0177 36.8836C50.6213 36.8836 51.1107 36.3941 51.1107 35.7906Z" fill="#E25B30"/>
<path d="M48.8893 64.2095V65.5574C48.8893 66.161 49.3787 66.6505 49.9823 66.6505C50.5859 66.6505 51.0753 66.161 51.0753 65.5574V64.2095C51.0753 63.6059 50.5859 63.1165 49.9823 63.1165C49.3787 63.1165 48.8893 63.6058 48.8893 64.2095Z" fill="#E25B30"/>
<path d="M44.5213 42.9755C44.0943 42.5488 43.4025 42.5488 42.9754 42.9755C42.5486 43.4023 42.5486 44.0944 42.9754 44.5214L46.6798 48.2258C46.3959 48.7548 46.2345 49.3589 46.2345 50.0001C46.2345 52.0764 47.9237 53.7656 50 53.7656C52.0763 53.7656 53.7655 52.0764 53.7655 50.0001C53.7655 49.3589 53.604 48.7548 53.3202 48.2258L60.7947 40.7513C61.2215 40.3245 61.2215 39.6324 60.7947 39.2054C60.3678 38.7787 59.6759 38.7787 59.2488 39.2054L51.7743 46.6799C51.2453 46.396 50.6412 46.2346 50 46.2346C49.3588 46.2346 48.7547 46.3962 48.2257 46.6799L44.5213 42.9755ZM51.5794 50.0001C51.5794 50.871 50.8709 51.5795 50 51.5795C49.1291 51.5795 48.4206 50.871 48.4206 50.0001C48.4206 49.1292 49.1291 48.4207 50 48.4207C50.8709 48.4207 51.5794 49.1292 51.5794 50.0001Z" fill="#E25B30"/>
<path d="M36.783 36.783C36.9874 36.5797 37.1043 36.2977 37.1043 36.0103C37.1043 35.7228 36.9874 35.4419 36.783 35.2375C36.5797 35.0343 36.2987 34.9172 36.0103 34.9172C35.7228 34.9172 35.4408 35.0342 35.2375 35.2375C35.0343 35.4408 34.9172 35.7228 34.9172 36.0103C34.9172 36.2988 35.0342 36.5797 35.2375 36.783C35.4408 36.9862 35.7228 37.1033 36.0103 37.1033C36.2987 37.1033 36.5797 36.9862 36.783 36.783Z" fill="#E25B30"/>
<path d="M57.5714 25.2657C57.8601 25.2657 58.1421 25.1497 58.3453 24.9454C58.5486 24.7421 58.6657 24.4611 58.6657 24.1726C58.6657 23.8852 58.5487 23.6032 58.3453 23.3998C58.1421 23.1967 57.8601 23.0796 57.5714 23.0796C57.284 23.0796 57.002 23.1965 56.7988 23.3998C56.5955 23.6032 56.4784 23.8852 56.4784 24.1726C56.4784 24.4612 56.5954 24.7421 56.7988 24.9454C57.002 25.1497 57.284 25.2657 57.5714 25.2657Z" fill="#E25B30"/>
</svg>
