<svg width="72" height="72" viewBox="0 0 72 72" fill="none" xmlns="http://www.w3.org/2000/svg">
<circle cx="36" cy="36" r="36" fill="#E25B30"/>
<g clip-path="url(#clip0)">
<path d="M50.2759 37.2414C51.6451 37.2414 52.7586 38.3548 52.7586 39.7241H54C54 37.6702 52.3298 36 50.2759 36H49.0345V40.4591C48.8396 40.3894 48.6323 40.3448 48.4138 40.3448C48.0116 40.3448 47.641 40.4763 47.3364 40.6936C46.0962 40.3193 44.8845 39.8272 43.7344 39.2295L43.1622 40.3312C44.2657 40.9046 45.4252 41.3819 46.6114 41.7626C46.576 41.9059 46.5517 42.0535 46.5517 42.2069C46.5517 42.4472 46.6014 42.6748 46.6845 42.8861C45.0721 42.3614 43.5568 41.6844 42.2484 40.8618L42.1517 40.8009C42.1845 40.6497 42.2069 40.4975 42.2069 40.3448C42.2069 38.7403 40.3815 37.2874 37.8621 36.7983V40.77C39.3274 41.4689 40.3448 42.9609 40.3448 44.6896C40.3448 46.4183 39.3274 47.9098 37.8621 48.6092V50.2758H39.1034V51.5172H32.8966V50.2758H34.1379V48.6092C32.6726 47.9104 31.6552 46.4183 31.6552 44.6896C31.6552 42.9609 32.6726 41.4695 34.1379 40.77V36.7983C33.917 36.841 33.7033 36.8937 33.4942 36.951L33.5166 36.9149C29.9792 34.6928 25.9008 33.5172 21.7241 33.5172H18V34.7586H21.7241C25.3552 34.7586 28.9024 35.7102 32.0492 37.4984C31.487 37.7826 31.0108 38.1251 30.6411 38.5052C29.3679 37.9451 28.0447 37.5056 26.6897 37.1941V36H20.4828V36.6207H18V37.862H20.4828V40.4591C20.2879 40.3894 20.0806 40.3448 19.8621 40.3448C18.8356 40.3448 18 41.1804 18 42.2069C18 43.2334 18.8356 44.0689 19.8621 44.0689C20.8886 44.0689 21.7241 43.2334 21.7241 42.2069V39.7241H25.4483V41.7004C25.2534 41.6307 25.0461 41.5862 24.8276 41.5862C23.8011 41.5862 22.9655 42.4217 22.9655 43.4482C22.9655 44.4747 23.8011 45.3103 24.8276 45.3103C25.8541 45.3103 26.6897 44.4747 26.6897 43.4482V38.4697C27.8025 38.7416 28.8924 39.104 29.9465 39.5547C29.8489 39.8117 29.7931 40.076 29.7931 40.3448C29.7931 40.59 29.8358 40.8352 29.9204 41.0752C30.2568 42.0338 30.4138 42.8382 30.4138 43.6065V43.7865C30.4138 45.3921 29.9719 46.846 29.1363 47.9898C28.7484 48.5223 28.5517 49.0823 28.5517 49.6551C28.5517 52.01 31.9625 54 36 54C40.0375 54 43.4483 52.01 43.4483 49.6551C43.4483 49.4663 43.4192 49.2802 43.3761 49.0948C46.5132 50.6235 50.3398 51.5172 54 51.5172V50.2758C49.8731 50.2758 45.5225 49.0948 42.3342 47.1178C42.0214 46.4947 41.8053 45.8074 41.6886 45.0739C45.0658 47.1642 49.6552 48.4138 53.9994 48.4138V47.1724C49.8364 47.1724 45.4431 45.9731 42.2466 43.9647L41.588 43.5501C41.5932 43.0703 41.6638 42.5706 41.7965 42.0326C45.1634 44.0844 49.6997 45.3103 53.9994 45.3103V44.0689C52.5383 44.0689 51.0499 43.9132 49.5936 43.6349C49.911 43.3725 50.1443 43.0124 50.2331 42.5954C51.4651 42.7536 52.9714 42.8282 53.9994 42.8282V41.5868C52.9505 41.5868 51.4303 41.5056 50.2753 41.3498V37.2414H50.2759ZM19.8621 42.8276C19.5196 42.8276 19.2414 42.5493 19.2414 42.2069C19.2414 41.8644 19.5196 41.5862 19.8621 41.5862C20.2045 41.5862 20.4828 41.8644 20.4828 42.2069C20.4828 42.5493 20.2045 42.8276 19.8621 42.8276ZM21.7241 38.4827V37.2414H25.4483V38.4827H21.7241ZM24.8276 44.0689C24.4851 44.0689 24.2069 43.7907 24.2069 43.4482C24.2069 43.1058 24.4851 42.8276 24.8276 42.8276C25.1701 42.8276 25.4483 43.1058 25.4483 43.4482C25.4483 43.7907 25.1701 44.0689 24.8276 44.0689ZM48.4138 41.5862C48.7563 41.5862 49.0345 41.8644 49.0345 42.2069C49.0345 42.5493 48.7563 42.8276 48.4138 42.8276C48.0713 42.8276 47.7931 42.5493 47.7931 42.2069C47.7931 41.8644 48.0713 41.5862 48.4138 41.5862Z" fill="white"/>
<path d="M36.6207 41.6489C36.4201 41.608 36.2122 41.5862 36 41.5862C35.7878 41.5862 35.5799 41.608 35.3793 41.6489V47.7303C35.5799 47.7713 35.7878 47.7931 36 47.7931C36.2122 47.7931 36.4201 47.7713 36.6207 47.7303V41.6489Z" fill="white"/>
<path d="M39.1034 44.6896C39.1034 43.6798 38.6113 42.7896 37.8621 42.2229V47.1569C38.6113 46.5895 39.1034 45.6994 39.1034 44.6896Z" fill="white"/>
<path d="M35.3793 48.9847V50.2758H36.6207V48.9847C36.417 49.0138 36.2109 49.0344 36 49.0344C35.7891 49.0344 35.583 49.0144 35.3793 48.9847Z" fill="white"/>
<path d="M34.7586 24.8276H40.3448V23.5862H38.0718L38.2091 22.3448H40.3448V21.1034H38.3455L38.4828 19.8621L36 18L33.5173 19.8621L33.6545 21.1034H31.6552V22.3448H33.7909L33.9282 23.5862H31.6552V24.8276H34.7586ZM35.3793 19.8621H36.6207V21.1034H35.3793V19.8621ZM35.3793 22.3448H36.6207V23.5862H35.3793V22.3448Z" fill="white"/>
<path d="M34.1379 47.1569V42.2229C33.3887 42.7902 32.8965 43.6804 32.8965 44.6896C32.8965 45.6988 33.3887 46.5895 34.1379 47.1569Z" fill="white"/>
<path d="M32.8563 34.8629L35.3793 36.4501V40.3945C35.583 40.3654 35.7891 40.3448 36 40.3448C36.211 40.3448 36.417 40.3654 36.6207 40.3945V26.069H35.3793V32.5004L33.5166 31.3294C29.9792 29.1067 25.9008 27.931 21.7241 27.931H18V29.1724H21.7241C25.6674 29.1724 29.517 30.2817 32.8563 32.3801L35.3793 33.9673V34.9832L33.5166 33.8121C29.9792 31.5894 25.9008 30.4138 21.7241 30.4138H18V31.6552H21.7241C25.6674 31.6552 29.517 32.7644 32.8563 34.8629Z" fill="white"/>
</g>
<defs>
<clipPath id="clip0">
<rect width="36" height="36" fill="white" transform="translate(18 18)"/>
</clipPath>
</defs>
</svg>
