<svg width="16" height="375" viewBox="0 0 16 375" fill="none" xmlns="http://www.w3.org/2000/svg">
<circle cx="8" cy="8" r="8" fill="#E25B30"/>
<circle cx="8" cy="69" r="8" fill="#E25B30"/>
<circle cx="8" cy="208" r="8" fill="#E25B30"/>
<circle cx="8" cy="367" r="8" fill="#E25B30"/>
<path d="M7.79289 60.7071C8.18342 61.0976 8.81658 61.0976 9.2071 60.7071L15.5711 54.3431C15.9616 53.9526 15.9616 53.3195 15.5711 52.9289C15.1805 52.5384 14.5474 52.5384 14.1569 52.9289L8.5 58.5858L2.84314 52.9289C2.45262 52.5384 1.81945 52.5384 1.42893 52.9289C1.03841 53.3195 1.03841 53.9526 1.42893 54.3431L7.79289 60.7071ZM7.5 16L7.5 60L9.5 60L9.5 16L7.5 16Z" fill="#E25B30"/>
<path d="M7.79268 199.707C8.18321 200.098 8.81637 200.098 9.20689 199.707L15.5709 193.343C15.9614 192.953 15.9614 192.319 15.5709 191.929C15.1803 191.538 14.5472 191.538 14.1566 191.929L8.49979 197.586L2.84294 191.929C2.45241 191.538 1.81925 191.538 1.42872 191.929C1.0382 192.319 1.0382 192.953 1.42872 193.343L7.79268 199.707ZM7.49982 76L7.49979 199L9.49979 199L9.49982 76L7.49982 76Z" fill="#E25B30"/>
<path d="M7.79271 358.707C8.18324 359.098 8.8164 359.098 9.20692 358.707L15.5709 352.343C15.9614 351.953 15.9614 351.319 15.5709 350.929C15.1804 350.538 14.5472 350.538 14.1567 350.929L8.49982 356.586L2.84296 350.929C2.45243 350.538 1.81927 350.538 1.42874 350.929C1.03822 351.319 1.03822 351.953 1.42874 352.343L7.79271 358.707ZM7.49968 216L7.49982 358L9.49982 358L9.49968 216L7.49968 216Z" fill="#E25B30"/>
</svg>
