<svg width="72" height="72" viewBox="0 0 72 72" fill="none" xmlns="http://www.w3.org/2000/svg">
<circle cx="36" cy="36" r="36" fill="#E25B30"/>
<g clip-path="url(#clip0)">
<path d="M42.538 43.5799C42.3174 43.358 42.0644 43.1625 41.7664 43.0202C40.3548 42.3448 38.6814 42.9529 38.0164 44.345C37.3468 45.7465 37.9375 47.4267 39.3421 48.0959C40.7383 48.7613 42.4217 48.1717 43.0921 46.7712V46.7702L45.3489 42.0443L46.3624 44.9108L48.1293 44.2864L45.6071 37.1517L42.538 43.5799Z" fill="white"/>
<path d="M37.3422 29.9404C36.8371 29.5486 36.2465 29.2781 35.5967 29.1839C33.5474 28.8909 31.6448 30.2994 31.3468 32.3553C31.0147 34.6298 32.7872 36.6446 35.0602 36.6446C36.8912 36.6446 38.4971 35.2978 38.7681 33.4338C38.7686 33.4301 38.7681 33.4264 38.7686 33.4226L38.7699 33.4229L40.1395 23.0735L49.8242 22.1039L48.9423 28.7779C48.4472 28.3932 47.8602 28.1147 47.1966 28.0185C45.1601 27.7233 43.246 29.1258 42.9467 31.1899C42.6146 33.4644 44.3872 35.4791 46.6601 35.4791C48.4912 35.4791 50.097 34.1324 50.368 32.2674C50.3686 32.2637 50.3679 32.26 50.3684 32.2563L50.3698 32.2565L51.9959 20L38.4769 21.3578L37.3422 29.9404Z" fill="white"/>
<path d="M22.7763 52C24.5367 52 25.8599 50.3997 25.5439 48.6794L24.3236 41.961L29.665 39.5632L30.3246 43.2233C30.0129 43.1734 29.693 43.1661 29.372 43.2247C27.8459 43.5046 26.8315 44.9658 27.1125 46.4977C27.3661 47.8802 28.5708 48.803 29.8728 48.803C31.6372 48.803 32.9618 47.2108 32.645 45.4833L31.0767 36.8624L22.216 40.8587L23.2242 46.4219C22.915 46.3714 22.5951 46.3611 22.2701 46.4207C20.7447 46.7 19.772 48.1694 20.0521 49.6947C20.3002 51.0487 21.4461 52 22.7763 52Z" fill="white"/>
<path d="M22.8196 34.6322C24.1129 35.4885 25.8571 35.1397 26.717 33.8412C27.1326 33.215 27.2791 32.4643 27.1299 31.7282L26.0871 26.5957L28.6212 28.2757L29.6576 26.712L23.3497 22.5326L24.7668 29.5163C23.5978 29.3485 22.5919 29.8834 22.0286 30.7339C21.1669 32.0351 21.5289 33.7775 22.8196 34.6322Z" fill="white"/>
</g>
<defs>
<clipPath id="clip0">
<rect width="32" height="32" fill="white" transform="translate(20 20)"/>
</clipPath>
</defs>
</svg>
