<svg width="100" height="100" viewBox="0 0 100 100" fill="none" xmlns="http://www.w3.org/2000/svg">
<circle cx="50" cy="50" r="49" stroke="#E25B30" stroke-width="2"/>
<g clip-path="url(#clip0)">
<path d="M68.2113 51.5983C67.7612 51.5983 67.3963 51.9631 67.3963 52.4132C67.3963 52.9838 66.9321 53.448 66.3615 53.448C65.791 53.448 65.3267 52.9838 65.3267 52.4132C65.3267 51.963 64.9618 51.5983 64.5118 51.5983C64.0617 51.5983 63.6968 51.9631 63.6968 52.4132C63.6968 53.8826 64.8923 55.0779 66.3615 55.0779C67.8307 55.0779 69.0262 53.8825 69.0262 52.4132C69.0262 51.9629 68.6613 51.5983 68.2113 51.5983Z" fill="#E25B30" stroke="#E25B30" stroke-width="0.4"/>
<path d="M75.8611 51.7314L73.5672 50.9966C73.2735 50.9024 73.0419 50.6679 72.948 50.3692C72.4645 48.8322 71.735 47.3892 70.7796 46.0802C70.3442 45.4836 69.86 44.9138 69.331 44.3714C69.6695 42.8869 69.8534 41.2068 69.8296 39.7553C69.7955 37.6788 69.3805 36.4609 68.561 36.0317C68.1197 35.8003 66.7766 35.0972 59.5068 38.4251C59.3346 38.5038 59.1738 38.6008 59.025 38.7119C58.5349 38.5803 58.0339 38.4584 57.5299 38.349C57.4692 38.3358 57.4067 38.3241 57.3455 38.3112C57.9346 37.0243 58.2786 35.6266 58.3432 34.1837C58.3634 33.734 58.0152 33.3531 57.5655 33.3331C57.1169 33.3108 56.7349 33.661 56.7149 34.1108C56.6087 36.4832 55.6245 38.7154 53.9438 40.3962C52.9397 41.4004 51.7639 42.1298 50.5108 42.5892C48.3376 42.2842 46.1241 42.2842 43.9509 42.5892C42.6977 42.1298 41.522 41.4004 40.5178 40.3962C38.7248 38.6031 37.7372 36.2191 37.7372 33.6832C37.7372 31.1472 38.7248 28.7633 40.5178 26.9702C42.3109 25.177 44.6951 24.1895 47.2308 24.1895C49.7666 24.1895 52.1508 25.177 53.9438 26.9702C54.6644 27.6908 55.2598 28.5131 55.7136 29.414C55.9161 29.816 56.4062 29.9779 56.8082 29.7754C57.2102 29.573 57.372 29.0829 57.1695 28.6809C56.6376 27.6245 55.9402 26.6612 55.0965 25.8175C52.9956 23.7165 50.2021 22.5594 47.231 22.5594C44.2598 22.5594 41.4663 23.7165 39.3654 25.8175C37.2644 27.9186 36.1073 30.7119 36.1073 33.6831C36.1073 36.6543 37.2644 39.4477 39.3654 41.5487C39.9714 42.1547 40.6307 42.6759 41.3281 43.1125C41.3283 43.1125 41.3285 43.1124 41.3288 43.1124C40.822 43.2441 40.3191 43.392 39.8218 43.5582C39.3949 43.701 39.1645 44.1626 39.3073 44.5896C39.4499 45.0165 39.9118 45.2469 40.3386 45.1043C44.7831 43.6184 49.6788 43.6184 54.1233 45.1043C54.2091 45.1329 54.2961 45.1465 54.3818 45.1465C54.7227 45.1465 55.0405 44.9308 55.1546 44.5896C55.2974 44.1628 55.067 43.701 54.6401 43.5582C54.1428 43.392 53.6399 43.244 53.1332 43.1124C53.1334 43.1124 53.1336 43.1125 53.1338 43.1125C53.8313 42.6759 54.4905 42.1547 55.0965 41.5487C55.6327 41.0125 56.106 40.4271 56.5169 39.8048C56.7415 39.8485 56.9646 39.8942 57.1843 39.9419C57.477 40.0054 57.7684 40.0737 58.0571 40.1453C58.048 40.1807 58.0387 40.2161 58.0312 40.2521C57.6337 42.1382 57.6595 43.8064 58.1079 45.21C58.5108 46.4717 59.238 47.4938 60.2691 48.2481C61.4844 49.1371 62.9515 49.5211 64.2805 49.5211C65.2808 49.5211 66.2029 49.3035 66.8802 48.9199C67.6462 48.486 68.288 47.5718 68.7961 46.1991C69.0309 46.4732 69.2535 46.754 69.4633 47.0414C70.3139 48.2067 70.9632 49.491 71.3933 50.8584C71.6459 51.6615 72.2728 52.2935 73.0703 52.5491L75.3641 53.2839C75.966 53.4767 76.3703 54.0307 76.3703 54.6627V58.4662C76.3703 59.0981 75.966 59.6521 75.3641 59.8449L71.6684 61.0287C71.0771 61.2183 70.5767 61.6246 70.2594 62.173C68.8075 64.6823 66.5247 66.7588 63.4741 68.3448C63.1217 68.5282 62.8776 68.8562 62.8041 69.245L61.6204 75.5125C61.5877 75.6852 61.4365 75.8104 61.2607 75.8104H57.4121C57.2364 75.8104 57.0851 75.6851 57.0524 75.5125L56.3968 72.0487C56.2677 71.3672 55.6285 70.9145 54.9406 71.0187C53.2828 71.2694 51.5746 71.3964 49.8636 71.3964C48.5907 71.3964 47.3341 71.3254 46.1285 71.1853C45.4618 71.1086 44.8408 71.5631 44.7162 72.2213L44.0932 75.5125C44.0605 75.6852 43.9092 75.8104 43.7335 75.8104H39.8849C39.7091 75.8104 39.5579 75.6851 39.5247 75.5099L38.385 69.5903C38.3116 69.2089 38.0721 68.8846 37.7275 68.7005C32.5273 65.9244 29.7788 61.2865 29.7788 55.2884C29.7788 52.2578 30.4418 49.578 31.7494 47.3231C32.9695 45.2189 34.7517 43.4791 37.0463 42.1518C37.4359 41.9264 37.569 41.4278 37.3437 41.0381C37.1184 40.6485 36.6198 40.5156 36.2301 40.7407C31.7809 43.3146 29.0973 47.2853 28.3585 52.3286V52.3285C28.2801 52.3214 28.2016 52.3146 28.1234 52.3065C28.1376 51.7624 28.0391 51.2133 27.8248 50.6804C27.3519 49.5051 26.3807 48.6568 25.3503 48.5193C24.5383 48.4106 23.7655 48.7553 23.2293 49.4638C22.4517 50.4913 22.5785 51.3044 22.8216 51.8056C23.2321 52.6514 24.2873 53.2496 26.0382 53.6258C25.9901 53.6979 25.9372 53.7703 25.8792 53.843C24.8446 55.1405 23.6257 55.4274 22.8343 55.4544C22.371 55.4701 22 55.842 22 56.3057V56.3096C22 56.7669 22.3608 57.1399 22.8177 57.1608C22.8762 57.1635 22.9373 57.1649 23.001 57.1649C24.0024 57.1649 25.6097 56.7956 27.1539 54.8593C27.3977 54.5537 27.5963 54.2313 27.749 53.8981C27.9028 53.9155 28.0505 53.9304 28.192 53.9435C28.192 53.9432 28.192 53.943 28.1922 53.9426C28.1644 54.3843 28.149 54.8324 28.149 55.2884C28.149 58.6821 28.958 61.7079 30.5535 64.2823C32.0245 66.6557 34.1308 68.5991 36.8157 70.0606L37.9237 75.8154C38.1019 76.7569 38.9267 77.4403 39.8849 77.4403H43.7335C44.6917 77.4403 45.5165 76.7569 45.6947 75.8154L46.258 72.8396C47.4278 72.9635 48.639 73.0263 49.8635 73.0263C51.5435 73.0263 53.2215 72.9092 54.8569 72.6782L55.4507 75.8157C55.629 76.7572 56.4538 77.4404 57.4119 77.4404H61.2605C62.2187 77.4404 63.0435 76.7571 63.2218 75.8152L64.3743 69.7131C67.6302 67.9914 70.0843 65.7298 71.67 62.9893C71.7843 62.7917 71.9603 62.6468 72.1655 62.5811L75.8611 61.3973C77.1404 60.9873 78 59.8094 78 58.466V54.6624C78 53.3191 77.1404 52.1412 75.8611 51.7314ZM68.0773 42.0455C67.7636 44.728 66.9222 47.0227 66.0767 47.5015C65.1157 48.0459 62.8971 48.151 61.2313 46.9325C59.5635 45.7125 59.0085 43.5187 59.6259 40.5881C59.6259 40.5879 59.6259 40.5879 59.6259 40.5879C59.6879 40.2936 59.897 40.039 60.1852 39.9071C64.2653 38.0394 66.6177 37.4285 67.4916 37.4285C67.6235 37.4285 67.7217 37.4424 67.7871 37.468C68.0496 37.7478 68.3939 39.3382 68.0773 42.0455ZM24.2882 51.0939C24.2039 50.9199 24.403 50.6142 24.5292 50.4473C24.7292 50.1831 24.9135 50.1291 25.0528 50.1291C25.0822 50.1291 25.1096 50.1315 25.1348 50.1349C25.5095 50.1848 26.0345 50.5972 26.3127 51.2885C26.3782 51.4513 26.4633 51.7209 26.4832 52.0571C25.355 51.8234 24.4784 51.4864 24.2882 51.0939Z" fill="#E25B30" stroke="#E25B30" stroke-width="0.4"/>
</g>
<defs>
<clipPath id="clip0">
<rect width="56" height="56" fill="white" transform="translate(22 22)"/>
</clipPath>
</defs>
</svg>
