<svg width="72" height="72" viewBox="0 0 72 72" fill="none" xmlns="http://www.w3.org/2000/svg">
<circle cx="36" cy="36" r="36" fill="#E25B30"/>
<g clip-path="url(#clip0)">
<path d="M45.0007 39.374C45.0007 35.0829 42.539 32.6235 38.2502 32.6235C37.1184 32.6235 36.0563 32.8687 35.109 33.2738C34.9177 32.3782 34.7332 31.5187 34.5599 30.7108C34.7197 30.5488 34.875 30.3913 35.028 30.2383C40.9706 24.2934 36.9541 18.5262 36.9114 18.4677C36.6053 18.0402 36.0405 17.8827 35.5523 18.0919C33.6959 18.8907 30.4354 21.7169 31.4232 26.6786C31.592 27.5246 31.8282 28.6699 32.1118 30.011C29.5106 32.7855 26.9994 36.1247 26.9994 39.374C26.9994 42.9967 30.8247 45.9624 35.6063 46.1177C35.838 47.164 36.054 48.1451 36.2498 49.0339C36.3646 49.5582 36.2408 50.0757 35.9933 50.5393C35.9438 48.7189 34.4564 47.2495 32.6248 47.2495C30.7639 47.2495 29.2496 48.7639 29.2496 50.6248C29.2496 52.4857 30.7639 54 32.6248 54H34.0469C35.424 54 36.7066 53.388 37.5639 52.3169C38.4167 51.2548 38.7385 49.8822 38.4437 48.5501C38.2705 47.7581 38.0792 46.894 37.8767 45.9759C41.9427 45.3279 45.0007 42.612 45.0007 39.374ZM35.5658 20.7021C36.1396 22.1085 36.7043 24.9392 33.9996 28.0466C33.8556 27.3536 33.7296 26.7438 33.6306 26.2398C33.0276 23.2111 34.5307 21.4964 35.5658 20.7021ZM29.2496 39.374C29.2496 37.2656 30.8697 34.8444 32.6901 32.7315C32.8138 33.3098 32.9443 33.9061 33.0748 34.5159C32.1095 35.3147 31.3985 36.2755 31.0317 37.2116C30.4219 38.7754 30.7234 40.274 31.862 41.3249C32.3165 41.7479 33.0298 41.7231 33.4506 41.2619C33.8736 40.8051 33.8444 40.094 33.3876 39.6732C33.2233 39.5225 32.7261 39.0634 33.1288 38.0306C33.2458 37.7336 33.4191 37.4321 33.6441 37.1396C34.1279 39.3695 34.6319 41.6781 35.1045 43.8338C31.8507 43.53 29.2496 41.6106 29.2496 39.374ZM37.3951 43.773C36.8168 41.1381 36.1868 38.2511 35.5995 35.5374C36.3871 35.1324 37.2961 34.8736 38.2502 34.8736C41.2789 34.8736 42.7505 36.3453 42.7505 39.374C42.7505 41.4959 40.4126 43.332 37.3951 43.773Z" fill="white"/>
</g>
<defs>
<clipPath id="clip0">
<rect width="36" height="36" fill="white" transform="translate(18 18)"/>
</clipPath>
</defs>
</svg>
