<svg width="72" height="72" viewBox="0 0 72 72" fill="none" xmlns="http://www.w3.org/2000/svg">
<circle cx="36" cy="36" r="36" fill="#E25B30"/>
<path d="M44.9878 25.5678C45.2994 25.2083 46.9513 23.5033 47.5735 22.8459C48.1957 22.1929 47.1736 21.7302 47.1736 21.7302C47.1736 21.7302 46.5492 21.0771 46.0737 21.4568C45.5972 21.8387 42.902 24.8977 42.902 24.8977L41.9575 25.922C41.9575 25.922 41.1693 24.4957 40.663 24.2712C40.1578 24.0489 37.1402 23.4852 37.1402 23.4852C37.1402 23.4852 36.7988 22.1992 36.7243 21.9238C36.651 21.6483 36.7945 21.5685 36.7243 21.2101C36.5669 20.4017 36.3148 17.0672 32.4145 18.2521C30.7488 18.7573 30.1096 20.3038 30.6329 21.9557C30.8413 22.613 32.6804 24.2712 32.6804 24.2712C32.6804 24.2712 30.1532 26.2347 28.4067 28.1865C26.6591 30.1361 24.2234 35.3161 24.9211 35.9128C25.6189 36.5084 28.3503 37.9465 28.3503 37.9465C28.3503 37.9465 26.0124 38.8548 25.3625 39.108C24.7126 39.359 24.1032 40.2822 24.2468 41.0406C24.3914 41.8032 28.3843 48.6935 28.7098 48.5776C29.0374 48.4595 30.4053 47.9957 30.4053 47.9957L31.32 48.8328C31.32 48.8328 30.4648 50.5389 29.9298 51.0367C29.3948 51.5377 27.5217 51.4579 27.3728 51.7866C27.225 52.1152 27.9387 53.0629 29.2012 52.9023C30.4648 52.7385 32.9793 51.7312 32.9793 51.7312C32.9793 51.7312 35.3118 51.4558 35.3767 51.1069C35.4437 50.7591 34.9555 48.9296 34.3641 48.8062C33.7727 48.6818 29.6639 42.4999 29.6639 42.4999C29.6639 42.4999 30.6148 42.4478 30.7541 42.2297C32.1603 44.2932 34.1248 43.4933 34.1248 43.4933C34.1248 43.4933 35.2693 47.4788 35.549 47.682C36.0117 48.0138 37.5891 49.3604 37.5891 49.3604C37.5891 49.3604 38.1315 49.8241 38.5804 50.206C39.0303 50.5889 38.4932 52.1397 38.7878 52.5853C39.0856 53.031 38.9069 53.8351 39.4111 53.9638C39.9163 54.0925 40.7502 53.8351 41.2416 53.4777C41.7309 53.1225 42.117 53.0023 41.7734 51.8695C41.4299 50.7399 41.0108 49.6869 41.0108 49.6869L41.0289 48.7052L43.2477 47.9468C43.2477 47.9468 43.5455 49.1062 44.2294 48.8818C44.9133 48.6616 44.5347 47.5937 44.5347 47.5937C44.5347 47.5937 45.4175 47.3831 45.477 47.097C45.5377 46.8151 44.674 39.9631 44.674 39.9631C44.674 39.9631 45.0303 39.7121 44.9665 38.9122C44.925 38.4091 42.8456 37.8677 42.8456 37.8677C42.8456 37.8677 42.8307 36.6488 42.0436 35.95C42.4148 35.7288 42.8009 35.1927 42.8009 35.1927C42.8009 35.1927 41.8202 32.9622 41.3299 31.9816C42.1468 32.0432 42.5042 33.4664 42.9796 33.4972C43.4551 33.5281 44.4964 33.6153 44.942 33.2749C45.3866 32.9356 44.6144 30.2574 44.2496 29.8202C43.8837 29.3841 43.6944 27.6121 43.1158 27.0314L43.9465 25.906C43.9475 25.9135 44.6751 25.9231 44.9878 25.5678ZM29.3352 35.6894C29.3352 35.6894 28.5024 34.8725 27.9972 34.4864C28.7992 34.0099 30.3457 31.688 30.7616 31.4976C31.1785 31.8082 31.9209 34.0397 32.189 34.1737C29.5448 34.9619 29.3352 35.6894 29.3352 35.6894Z" fill="white"/>
</svg>
