<svg width="72" height="72" viewBox="0 0 72 72" fill="none" xmlns="http://www.w3.org/2000/svg">
<circle cx="36" cy="36" r="36" fill="#E25B30"/>
<path d="M36 20C25.4746 20 22.6667 25.8666 22.6667 29.3333C22.6667 34.6211 30.7669 52 36 52C41.2331 52 49.3333 34.6211 49.3333 29.3333C49.3333 25.8666 46.5254 20 36 20ZM41.3333 36C41.3333 36.7728 40.4922 37.3333 39.3333 37.3333C38.1744 37.3333 37.3333 36.7728 37.3333 36C37.3333 35.2273 38.1744 34.6667 39.3333 34.6667C39.572 34.6667 39.7928 34.6958 40 34.7403V29.4798L34.6667 30.5463V37.3334C34.6667 38.1062 33.8256 38.6667 32.6667 38.6667C31.5078 38.6667 30.6667 38.1061 30.6667 37.3334C30.6667 36.5606 31.5078 36.0001 32.6667 36.0001C32.9054 36.0001 33.1262 36.0292 33.3334 36.0737V30C33.3334 29.6823 33.558 29.4089 33.8692 29.3464L40.5359 28.0131C40.7351 27.9759 40.9356 28.0248 41.0893 28.1511C41.2436 28.278 41.3334 28.4668 41.3334 28.6667V36H41.3333Z" fill="white"/>
</svg>
