<svg width="48" height="48" viewBox="0 0 48 48" fill="none" xmlns="http://www.w3.org/2000/svg">
<path d="M45.3494 26.4414C47.0851 23.6908 47.9999 20.5243 47.9999 17.2499C47.9999 7.73831 40.2616 0 30.75 0C27.564 0 24.4511 0.875719 21.7481 2.53247C21.3066 2.80303 21.1681 3.38016 21.4387 3.82162C21.7092 4.263 22.2863 4.40166 22.7279 4.131C25.1359 2.65509 27.91 1.875 30.7501 1.875C39.2278 1.875 46.125 8.77209 46.125 17.2499C46.125 20.3246 45.2206 23.2919 43.5093 25.8309C43.2824 26.1677 43.3018 26.6031 43.5353 26.9157L44.5626 30.7497L40.4391 29.6448C40.169 29.5724 39.8808 29.6242 39.6529 29.7864C37.0431 31.6434 33.9646 32.6249 30.7501 32.6249C28.9189 32.6249 27.1278 32.305 25.4243 31.6757C24.2252 27.2596 20.7408 23.7751 16.3247 22.576C15.6952 20.8726 15.3752 19.0818 15.3752 17.25C15.3752 14.3784 16.1716 11.578 17.6783 9.1515C17.9514 8.71163 17.8162 8.13366 17.3764 7.86047C16.9367 7.58738 16.3585 7.72247 16.0853 8.16244C14.394 10.8863 13.5001 14.0287 13.5001 17.25C13.5001 18.9363 13.7421 20.5921 14.2193 22.1887C13.7975 22.1471 13.37 22.1253 12.9376 22.1253C5.80386 22.1253 0.000167847 27.9291 0.000167847 35.0627C0.000167847 37.6229 0.740418 40.0806 2.14498 42.1991L1.14167 45.944C1.05495 46.2675 1.14748 46.6127 1.38429 46.8496C1.62111 47.0864 1.9662 47.1788 2.28982 47.0922L6.12748 46.0639C8.17123 47.3317 10.5165 48 12.9376 48C15.4018 48 17.7987 47.3044 19.8692 45.9883C20.3061 45.7105 20.4351 45.1312 20.1574 44.6942C19.8797 44.2572 19.3001 44.1282 18.8633 44.4059C17.0939 45.5306 15.045 46.125 12.9376 46.125C10.7438 46.125 8.62348 45.4839 6.80595 44.271C6.5816 44.1213 6.30364 44.0753 6.04292 44.1453L3.37292 44.8607L4.06798 42.2667C4.14045 41.9963 4.08823 41.7075 3.92557 41.4796C2.58411 39.5993 1.87507 37.3804 1.87507 35.0625C1.87507 28.9627 6.83773 24.0001 12.9375 24.0001C19.0372 24.0001 24 28.9627 24 35.0626C24 36.3652 23.776 37.6402 23.3343 38.852C23.1569 39.3383 23.4075 39.8765 23.8939 40.0538C24.3803 40.2311 24.9185 39.9806 25.0958 39.4942C25.6129 38.076 25.875 36.585 25.875 35.0626C25.875 34.6301 25.8532 34.2027 25.8116 33.781C27.4084 34.2581 29.0644 34.4998 30.7501 34.4998C34.2071 34.4998 37.5244 33.4877 40.3731 31.5682L45.6458 32.981C45.9695 33.0677 46.3145 32.9752 46.5514 32.7383C46.7883 32.5015 46.8808 32.1563 46.7941 31.8327L45.3494 26.4414Z" fill="white"/>
<path d="M35.5828 19.2464H26.0341C25.5163 19.2464 25.0966 19.6661 25.0966 20.1839C25.0966 23.3334 27.659 25.8958 30.8085 25.8958C33.958 25.8958 36.5204 23.3334 36.5204 20.1839C36.5203 19.6661 36.1005 19.2464 35.5828 19.2464ZM30.8085 24.0207C29.0162 24.0207 27.5069 22.7853 27.0875 21.1213H34.5296C34.11 22.7853 32.6007 24.0207 30.8085 24.0207Z" fill="white"/>
<path d="M38.1082 14.0455C37.8365 13.6046 37.2589 13.4676 36.8183 13.7391L36.696 13.8145C36.2556 14.0867 36.1191 14.6644 36.3913 15.1048C36.5686 15.3919 36.8755 15.5498 37.1897 15.5498C37.3578 15.5498 37.528 15.5046 37.6816 15.4096L37.8017 15.3355C38.2425 15.0639 38.3798 14.4864 38.1082 14.0455Z" fill="white"/>
<path d="M25.2262 14.0454C24.9545 13.6046 24.3769 13.4676 23.9363 13.7391L23.8141 13.8145C23.3736 14.0867 23.2371 14.6644 23.5094 15.1048C23.6867 15.3918 23.9936 15.5497 24.3078 15.5497C24.4759 15.5497 24.6461 15.5045 24.7997 15.4095L24.9198 15.3353C25.3606 15.0638 25.4978 14.4863 25.2262 14.0454Z" fill="white"/>
<path d="M8.44415 34.3996C8.26978 34.2252 8.0279 34.1249 7.78134 34.1249C7.53478 34.1249 7.293 34.2252 7.11853 34.3996C6.94415 34.574 6.84384 34.8158 6.84384 35.0624C6.84384 35.309 6.94415 35.5508 7.11853 35.7252C7.2929 35.8996 7.53478 35.9999 7.78134 35.9999C8.0279 35.9999 8.26978 35.8996 8.44415 35.7252C8.61853 35.5508 8.71884 35.309 8.71884 35.0624C8.71884 34.8158 8.61853 34.574 8.44415 34.3996Z" fill="white"/>
<path d="M13.6004 34.3996C13.426 34.2252 13.1842 34.1249 12.9376 34.1249C12.691 34.1249 12.4492 34.2252 12.2748 34.3996C12.1004 34.574 12.0001 34.8158 12.0001 35.0624C12.0001 35.309 12.1004 35.5508 12.2748 35.7252C12.4492 35.8996 12.691 35.9999 12.9376 35.9999C13.1842 35.9999 13.426 35.8996 13.6004 35.7252C13.7748 35.5508 13.8751 35.309 13.8751 35.0624C13.8751 34.8158 13.7748 34.574 13.6004 34.3996Z" fill="white"/>
<path d="M18.7566 34.3996C18.5822 34.2252 18.3403 34.1249 18.0938 34.1249C17.8472 34.1249 17.6054 34.2252 17.4309 34.3996C17.2566 34.574 17.1562 34.8158 17.1562 35.0624C17.1562 35.309 17.2566 35.5508 17.4309 35.7252C17.6053 35.8996 17.8472 35.9999 18.0938 35.9999C18.3403 35.9999 18.5822 35.8996 18.7566 35.7252C18.9309 35.5508 19.0312 35.309 19.0312 35.0624C19.0312 34.8158 18.9309 34.574 18.7566 34.3996Z" fill="white"/>
<path d="M22.9528 41.9182C22.7784 41.7439 22.5366 41.6436 22.29 41.6436C22.0425 41.6436 21.8016 41.7439 21.6272 41.9182C21.4528 42.0926 21.3525 42.3345 21.3525 42.5811C21.3525 42.8276 21.4528 43.0695 21.6272 43.2439C21.8016 43.4182 22.0425 43.5186 22.29 43.5186C22.5366 43.5186 22.7784 43.4182 22.9528 43.2439C23.1272 43.0695 23.2275 42.8276 23.2275 42.5811C23.2275 42.3345 23.1272 42.0926 22.9528 41.9182Z" fill="white"/>
<path d="M19.9098 5.02135C19.7354 4.84698 19.4935 4.7476 19.247 4.7476C18.9995 4.7476 18.7585 4.84698 18.5842 5.02135C18.4088 5.19667 18.3095 5.4376 18.3095 5.6851C18.3095 5.93167 18.4088 6.17354 18.5842 6.34792C18.7585 6.52229 18.9994 6.62167 19.247 6.62167C19.4935 6.62167 19.7354 6.52229 19.9098 6.34792C20.0842 6.17354 20.1845 5.93167 20.1845 5.6851C20.1845 5.4376 20.0842 5.19667 19.9098 5.02135Z" fill="white"/>
</svg>
