<svg width="48" height="48" viewBox="0 0 48 48" fill="none" xmlns="http://www.w3.org/2000/svg">
<g clip-path="url(#clip0)">
<path d="M22.1852 41.7387L22.1698 41.7581C21.849 42.1642 21.9182 42.7539 22.3243 43.075C22.4964 43.2109 22.7012 43.2768 22.9048 43.2768C23.1816 43.2768 23.4563 43.1549 23.6412 42.9205L23.6705 42.8831L22.93 42.3082L22.1852 41.7387Z" fill="white"/>
<path d="M11.3082 30.4465L8.74475 33.0097C8.56897 33.1855 8.47046 33.4239 8.47046 33.6725C8.47046 33.9212 8.56897 34.1596 8.74475 34.3354L13.7058 39.2964C13.8889 39.4795 14.1288 39.5711 14.3687 39.5711C14.6085 39.5711 14.8484 39.4795 15.0315 39.2964L17.5946 36.7333C17.7704 36.5575 17.8693 36.3191 17.8693 36.0705C17.8693 35.8218 17.7704 35.583 17.5946 35.4073L12.6339 30.4465C12.2677 30.0803 11.6741 30.0803 11.3082 30.4465ZM14.3687 37.3075L10.7337 33.6725L11.9711 32.4351L15.6061 36.0701L14.3687 37.3075Z" fill="white"/>
<path d="M47.7666 6.04287L47.6648 5.94107C47.8398 5.76528 47.938 5.52761 47.938 5.27969C47.938 5.03103 47.8394 4.79262 47.6637 4.61684L43.4244 0.377565C43.0589 0.012085 42.4664 0.0117188 42.1002 0.376466L41.9984 0.274659C41.6321 -0.0915531 41.0385 -0.0915531 40.6723 0.274659C40.3061 0.640506 40.3061 1.23414 40.6723 1.60035L40.7741 1.70216L39.9355 2.54078L39.8337 2.43898C39.4675 2.07313 38.8738 2.07313 38.5076 2.43898C38.1414 2.80519 38.1414 3.39882 38.5076 3.76503L38.6094 3.86684L37.7708 4.70547L37.669 4.60366C37.3031 4.23745 36.7095 4.23745 36.3433 4.60366C35.9771 4.96987 35.9771 5.5635 36.3433 5.92935L36.4451 6.03152C36.0804 6.39773 36.0811 6.99027 36.4466 7.35575L36.4902 7.39932L35.519 8.37052C35.1527 8.73673 35.1527 9.33036 35.519 9.69621C35.8852 10.0624 36.4784 10.0624 36.8446 9.69621L37.8158 8.72538L39.3158 10.2254L23.9261 25.6151C23.9217 25.6081 23.917 25.6019 23.9126 25.595C23.8793 25.5437 23.8445 25.4928 23.8089 25.4423C23.7947 25.4221 23.7811 25.4016 23.7665 25.3815C23.7295 25.3302 23.691 25.28 23.6518 25.2302C23.6368 25.2115 23.6229 25.1921 23.6079 25.1735C23.5683 25.1247 23.5273 25.0775 23.4859 25.0299C23.4695 25.0112 23.4537 24.9918 23.4372 24.9731C23.3911 24.9219 23.3431 24.8721 23.2948 24.8226C23.282 24.8098 23.2702 24.7963 23.2578 24.7834C23.2442 24.7703 23.23 24.7578 23.2164 24.7446C23.1677 24.697 23.1186 24.6498 23.0685 24.6044C23.0491 24.5868 23.0289 24.5707 23.0091 24.5535C22.9626 24.5132 22.9161 24.4725 22.8681 24.4341C22.8484 24.418 22.8282 24.4029 22.8081 24.3872C22.7594 24.3491 22.7103 24.3114 22.6605 24.2755C22.6393 24.2598 22.6173 24.2455 22.596 24.2301C22.547 24.1957 22.4975 24.162 22.4474 24.1294C22.4404 24.125 22.4334 24.1199 22.4261 24.1151L32.2728 14.268C32.6391 13.9018 32.6391 13.3082 32.2728 12.9423C31.9066 12.5761 31.3134 12.5761 30.9472 12.9423L26.6573 17.2321C25.2342 16.347 23.7496 15.8533 22.3232 15.7988C20.5057 15.7296 18.8614 16.3741 17.5712 17.6643C16.6206 18.6153 15.89 19.4279 15.3381 20.1494C14.257 21.5626 13.9981 21.6161 13.0764 21.6161C13.076 21.6161 13.0756 21.6161 13.0753 21.6161C9.65226 21.6161 6.39554 22.9879 3.90456 25.4785C-1.23926 30.6227 -1.23926 38.9925 3.90456 44.1363C6.06008 46.2918 8.91508 47.6417 11.9437 47.9376C12.3707 47.9793 12.7977 47.9998 13.2239 47.9998C15.7827 47.9998 18.3081 47.2564 20.4489 45.8557C20.8822 45.5719 21.0034 44.991 20.7199 44.5578C20.4365 44.1246 19.8553 44.003 19.4221 44.2868C14.9689 47.2011 9.00041 46.5804 5.23061 42.8106C0.817752 38.3978 0.817752 31.2174 5.23061 26.8046C7.3671 24.6677 10.1529 23.4911 13.0753 23.4911H13.0764C14.8301 23.4911 15.5838 22.9139 16.8275 21.2887C17.3284 20.6335 18.0056 19.8817 18.8973 18.99C20.5313 17.3559 22.8689 17.2325 25.2903 18.5988L20.4955 23.3937C19.0006 23.1725 17.4233 23.6354 16.2749 24.7834C14.3497 26.7086 14.3497 29.8408 16.2749 31.7664C17.2376 32.7288 18.5018 33.21 19.7663 33.21C21.0305 33.21 22.295 32.7288 23.2578 31.7664C24.4059 30.6179 24.8688 29.0403 24.6472 27.5458L29.4424 22.7506C30.8084 25.1727 30.6849 27.5099 29.0513 29.1436C28.1599 30.0346 27.4081 30.7121 26.7529 31.2134C25.1269 32.4571 24.5498 33.2107 24.5498 34.9645C24.5498 36.5623 24.1803 38.1813 23.4808 39.6465C23.2578 40.1138 23.4559 40.6734 23.9232 40.8964C24.0536 40.9587 24.1909 40.9883 24.3264 40.9883C24.6765 40.9883 25.0123 40.7913 25.1731 40.4544C25.9919 38.7383 26.4252 36.8399 26.4248 34.9645C26.4248 34.0428 26.4786 33.7838 27.8922 32.7024C28.614 32.1498 29.427 31.4196 30.377 30.4693C31.6668 29.1798 32.3117 27.5366 32.2421 25.7176C32.1875 24.2916 31.6942 22.807 30.8091 21.3839L40.6423 11.5507L40.6858 11.5943C40.8616 11.7701 41.1 11.8689 41.3487 11.8689C41.5966 11.8689 41.8343 11.7704 42.0101 11.5958L42.1119 11.6976C42.295 11.8807 42.5349 11.9722 42.7747 11.9722C43.0146 11.9722 43.2548 11.8807 43.4376 11.6976C43.8038 11.3313 43.8038 10.7377 43.4376 10.3715L43.3358 10.2701L44.1748 9.43107L44.2766 9.53288C44.4597 9.71599 44.6995 9.80754 44.9394 9.80754C45.1793 9.80754 45.4191 9.71599 45.6022 9.53288C45.9685 9.16703 45.9685 8.5734 45.6022 8.20719L45.5004 8.10538L46.3391 7.26676L46.4409 7.36856C46.624 7.55167 46.8639 7.64322 47.1037 7.64322C47.3436 7.64322 47.5835 7.55167 47.7666 7.36856C48.1328 7.00272 48.1328 6.40909 47.7666 6.04287ZM21.9317 30.4407C20.7375 31.6345 18.7948 31.6345 17.6005 30.4407C16.4067 29.2465 16.4067 27.3037 17.6005 26.1095C18.1978 25.5126 18.9819 25.2141 19.7663 25.2141C20.0556 25.2141 20.3446 25.2551 20.6247 25.3361C20.6379 25.3401 20.6511 25.3441 20.6639 25.3481C20.7793 25.3833 20.8928 25.4258 21.0041 25.4748C21.0305 25.4866 21.0572 25.4983 21.0836 25.5107C21.1081 25.5225 21.133 25.5349 21.1576 25.5474C21.1909 25.5642 21.2242 25.5821 21.2568 25.6005C21.2748 25.6107 21.2931 25.6202 21.3106 25.6305C21.3612 25.6601 21.411 25.6909 21.4601 25.7235C21.471 25.7308 21.4817 25.7389 21.4926 25.7462C21.5318 25.7729 21.5703 25.8004 21.608 25.829C21.6241 25.8411 21.6399 25.8535 21.6556 25.866C21.6889 25.892 21.7215 25.9191 21.7538 25.9465C21.7691 25.9593 21.7845 25.9722 21.7995 25.9857C21.8402 26.0216 21.8797 26.059 21.9186 26.097C21.9229 26.1011 21.9273 26.1051 21.9317 26.1095C21.9358 26.1135 21.9394 26.1175 21.9431 26.1216C21.9819 26.1608 22.0196 26.201 22.0559 26.2421C22.0691 26.2563 22.0812 26.2714 22.094 26.286C22.1222 26.319 22.1496 26.3523 22.1764 26.3863C22.1881 26.4014 22.1998 26.4167 22.2115 26.4318C22.2408 26.4709 22.269 26.5105 22.2969 26.5508C22.3034 26.5607 22.3108 26.5706 22.3174 26.5804C22.3503 26.6299 22.3811 26.68 22.4111 26.731C22.421 26.7482 22.4305 26.7657 22.44 26.783C22.4587 26.8163 22.477 26.85 22.4942 26.884C22.5067 26.9082 22.5188 26.9327 22.5305 26.9573C22.5429 26.9836 22.555 27.0104 22.5667 27.0371C22.6158 27.1484 22.6579 27.262 22.6931 27.3773C22.6971 27.3905 22.7011 27.4033 22.7052 27.4161C23.0066 28.4551 22.7491 29.6233 21.9317 30.4407ZM45.6748 5.27969L41.3487 9.60576L38.4355 6.69253L42.7615 2.36647L45.6748 5.27969Z" fill="white"/>
<path d="M33.5147 12.638C33.7542 12.638 33.9937 12.5468 34.1768 12.3641L34.1944 12.3465C34.5609 11.9806 34.562 11.387 34.1962 11.0204C33.8307 10.6539 33.2371 10.6531 32.8705 11.019L32.8526 11.0365C32.486 11.4024 32.4853 11.996 32.8508 12.3626C33.0339 12.5461 33.2745 12.638 33.5147 12.638Z" fill="white"/>
</g>
<defs>
<clipPath id="clip0">
<rect width="47.9065" height="48" fill="white"/>
</clipPath>
</defs>
</svg>
