<svg width="48" height="48" viewBox="0 0 48 48" fill="none" xmlns="http://www.w3.org/2000/svg">
<path d="M38.1628 35.3447C37.9884 35.1703 37.7466 35.07 37.5 35.07C37.2534 35.07 37.0116 35.1702 36.8372 35.3447C36.6628 35.5191 36.5625 35.761 36.5625 36.0075C36.5625 36.255 36.6628 36.496 36.8372 36.6702C37.0116 36.8456 37.2534 36.945 37.5 36.945C37.7466 36.945 37.9884 36.8456 38.1628 36.6702C38.3372 36.496 38.4375 36.2549 38.4375 36.0075C38.4375 35.761 38.3372 35.5191 38.1628 35.3447Z" fill="white"/>
<path d="M44.0625 0H12.6562C12.1385 0 11.7188 0.419813 11.7188 0.9375C11.7188 1.45519 12.1385 1.875 12.6562 1.875H44.0625C45.1998 1.875 46.125 2.80022 46.125 3.9375V28.125H37.2831C35.6288 28.125 34.2831 26.7792 34.2831 25.125C34.2831 23.4708 35.6288 22.125 37.2831 22.125C37.8008 22.125 38.2206 21.7052 38.2206 21.1875C38.2206 20.6698 37.8008 20.25 37.2831 20.25H30.3221C31.6678 18.719 32.5138 16.482 32.5138 14.4359C32.5138 11.0339 30.0544 8.56472 26.6658 8.56472C26.3171 8.56472 25.9733 8.59247 25.6376 8.64628C25.7431 7.88259 25.7354 6.88266 25.2772 5.94844C24.7424 4.85794 23.8163 4.19662 23.1337 3.834C22.5892 3.54459 21.5815 3.10547 20.9487 3.41587C20.3163 3.72619 20.0464 4.79184 19.9418 5.39944C19.8108 6.16134 19.7667 7.29834 20.3015 8.38884C20.3415 8.4705 20.3849 8.54897 20.4298 8.62594C17.5169 9.02437 15.4863 11.3449 15.4863 14.4359C15.4863 16.4819 16.3322 18.719 17.678 20.25H14.6545C11.9664 20.25 9.77953 22.4369 9.77953 25.125C9.77953 26.2558 10.1677 27.2971 10.8161 28.125H1.875V3.9375C1.875 2.80022 2.80022 1.875 3.9375 1.875H4.96875C5.48653 1.875 5.90625 1.45519 5.90625 0.9375C5.90625 0.419813 5.48653 0 4.96875 0H3.9375C1.76634 0 0 1.76634 0 3.9375V33.0078C0 35.1789 1.76634 36.9453 3.9375 36.9453H18.4688V41.485C15.7056 41.8392 13.5625 44.2045 13.5625 47.0625C13.5625 47.5802 13.9823 48 14.5 48H33.5001C34.0178 48 34.4376 47.5802 34.4376 47.0625C34.4376 44.1401 32.1971 41.732 29.3438 41.4633V36.9453H33.7189C34.2367 36.9453 34.6564 36.5255 34.6564 36.0078C34.6564 35.4901 34.2367 35.0703 33.7189 35.0703H3.9375C2.80022 35.0703 1.875 34.1451 1.875 33.0078V30H46.125V33.0078C46.125 34.1451 45.1998 35.0703 44.0625 35.0703H40.75C40.2323 35.0703 39.8125 35.4901 39.8125 36.0078C39.8125 36.5255 40.2323 36.9453 40.75 36.9453H44.0625C46.2337 36.9453 48 35.1789 48 33.0078V3.9375C48 1.76634 46.2337 0 44.0625 0ZM20.3438 36.9453H27.4688V41.4375H20.3438V36.9453ZM28.8125 43.3125C30.5567 43.3125 32.0266 44.5094 32.4439 46.125H15.5561C15.9734 44.5094 17.4433 43.3125 19.1874 43.3125H28.8125ZM21.8819 5.31862C22.4076 5.53369 23.2161 6.00403 23.5938 6.774C23.943 7.48603 23.8225 8.36606 23.6668 8.946C23.1022 8.71106 22.3298 8.26631 21.9848 7.56319C21.6071 6.79313 21.7302 5.86584 21.8819 5.31862ZM17.3612 14.4359C17.3612 12.083 18.995 10.4397 21.3342 10.4397C22.1342 10.4397 22.889 10.6393 23.5168 11.0168C23.8141 11.1955 24.1858 11.1955 24.4831 11.0168C25.1109 10.6393 25.8657 10.4397 26.6657 10.4397C29.0049 10.4397 30.6387 12.083 30.6387 14.4359C30.6387 16.998 28.7692 20.2479 26.6676 20.25H26.6632C25.8196 20.249 25.1093 19.7172 24.662 19.2709C24.479 19.0884 24.2394 18.9971 23.9998 18.9971C23.7602 18.9971 23.5207 19.0884 23.3377 19.2709C22.8903 19.7172 22.18 20.2491 21.3364 20.25H21.3321C19.2308 20.248 17.3612 16.998 17.3612 14.4359ZM20.1735 28.125H14.6544C13.0002 28.125 11.6544 26.7792 11.6544 25.125C11.6544 23.4708 13.0002 22.125 14.6544 22.125H20.1735C19.5249 22.9529 19.1369 23.9942 19.1369 25.125C19.1369 26.2558 19.525 27.2971 20.1735 28.125ZM24.0119 28.125C22.3577 28.125 21.0119 26.7792 21.0119 25.125C21.0119 23.4708 22.3577 22.125 24.0119 22.125H26.6616C26.663 22.125 26.6644 22.1251 26.6657 22.1251C26.6673 22.1251 26.6688 22.125 26.6704 22.125H33.4429C32.9658 22.7344 32.6311 23.4598 32.4873 24.2511H24.375C23.8572 24.2511 23.4375 24.6709 23.4375 25.1886C23.4375 25.7063 23.8572 26.1261 24.375 26.1261H32.5119C32.6674 26.8679 32.9915 27.5484 33.443 28.125H24.0119Z" fill="white"/>
<path d="M24.5691 32.3447C24.3947 32.1703 24.1538 32.07 23.9062 32.07C23.6597 32.07 23.4178 32.1702 23.2434 32.3447C23.0691 32.5191 22.9688 32.761 22.9688 33.0075C22.9688 33.2541 23.0691 33.496 23.2434 33.6702C23.4178 33.8456 23.6597 33.945 23.9062 33.945C24.1528 33.945 24.3947 33.8456 24.5691 33.6702C24.7434 33.496 24.8438 33.2541 24.8438 33.0075C24.8438 32.761 24.7434 32.5191 24.5691 32.3447Z" fill="white"/>
<path d="M9.28781 0.274687C9.11344 0.100313 8.87156 0 8.625 0C8.37844 0 8.13656 0.100219 7.96219 0.274687C7.78781 0.449062 7.6875 0.690938 7.6875 0.9375C7.6875 1.18406 7.78781 1.42594 7.96219 1.60022C8.13656 1.77469 8.37844 1.875 8.625 1.875C8.87156 1.875 9.11344 1.77469 9.28781 1.60022C9.46219 1.42594 9.5625 1.18406 9.5625 0.9375C9.5625 0.690938 9.46219 0.449062 9.28781 0.274687Z" fill="white"/>
<path d="M43.3125 40.875C40.7278 40.875 38.625 42.9778 38.625 45.5625V47.0625C38.625 47.5802 39.0447 48 39.5625 48H47.0625C47.5803 48 48 47.5802 48 47.0625V45.5625C48 42.9778 45.8972 40.875 43.3125 40.875ZM46.125 46.125H40.5V45.5625C40.5 44.0117 41.7617 42.75 43.3125 42.75C44.8633 42.75 46.125 44.0117 46.125 45.5625V46.125Z" fill="white"/>
</svg>
